<svg width="4000" height="4000" viewBox="0 0 4000 4000" fill="none" xmlns="http://www.w3.org/2000/svg">
<path d="M1529.2 2513.4C1481.8 2513.4 1439.2 2502.9 1401.4 2481.9C1363.6 2460.9 1333.9 2432.1 1312.3 2395.5C1291.3 2358.3 1280.8 2316.3 1280.8 2269.5C1280.8 2222.7 1291.3 2181 1312.3 2144.4C1333.9 2107.2 1363.6 2078.4 1401.4 2058C1439.2 2037 1481.8 2026.5 1529.2 2026.5C1576.6 2026.5 1618.9 2037 1656.1 2058C1693.9 2078.4 1723.3 2107.2 1744.3 2144.4C1765.9 2181 1776.7 2222.7 1776.7 2269.5C1776.7 2316.3 1765.9 2358.3 1744.3 2395.5C1723.3 2432.1 1693.9 2460.9 1656.1 2481.9C1618.9 2502.9 1576.6 2513.4 1529.2 2513.4ZM1529.2 2437.8C1559.8 2437.8 1587.1 2430.9 1611.1 2417.1C1635.7 2402.7 1654.9 2382.9 1668.7 2357.7C1682.5 2331.9 1689.4 2302.5 1689.4 2269.5C1689.4 2236.5 1682.5 2207.4 1668.7 2182.2C1654.9 2156.4 1635.7 2136.6 1611.1 2122.8C1587.1 2109 1559.8 2102.1 1529.2 2102.1C1498.6 2102.1 1471 2109 1446.4 2122.8C1422.4 2136.6 1403.2 2156.4 1388.8 2182.2C1375 2207.4 1368.1 2236.5 1368.1 2269.5C1368.1 2302.5 1375 2331.9 1388.8 2357.7C1403.2 2382.9 1422.4 2402.7 1446.4 2417.1C1471 2430.9 1498.6 2437.8 1529.2 2437.8ZM2192.29 2480.1C2179.69 2490.9 2164.09 2499.3 2145.49 2505.3C2126.89 2510.7 2107.69 2513.4 2087.89 2513.4C2039.89 2513.4 2002.69 2500.5 1976.29 2474.7C1949.89 2448.9 1936.69 2412 1936.69 2364V1926.6H2023.09V2031H2159.89V2102.1H2023.09V2360.4C2023.09 2386.2 2029.39 2406 2041.99 2419.8C2055.19 2433.6 2073.79 2440.5 2097.79 2440.5C2124.19 2440.5 2146.69 2433 2165.29 2418L2192.29 2480.1ZM2775.45 2031V2508H2692.65V2432.4C2673.45 2458.8 2649.15 2478.9 2619.75 2492.7C2590.35 2506.5 2557.95 2513.4 2522.55 2513.4C2476.35 2513.4 2434.95 2503.2 2398.35 2482.8C2361.75 2462.4 2332.95 2433.9 2311.95 2397.3C2291.55 2360.1 2281.35 2317.5 2281.35 2269.5C2281.35 2221.5 2291.55 2179.2 2311.95 2142.6C2332.95 2106 2361.75 2077.5 2398.35 2057.1C2434.95 2036.7 2476.35 2026.5 2522.55 2026.5C2556.75 2026.5 2588.25 2033.1 2617.05 2046.3C2645.85 2058.9 2669.85 2077.8 2689.05 2103V2031H2775.45ZM2529.75 2437.8C2559.75 2437.8 2587.05 2430.9 2611.65 2417.1C2636.25 2402.7 2655.45 2382.9 2669.25 2357.7C2683.05 2331.9 2689.95 2302.5 2689.95 2269.5C2689.95 2236.5 2683.05 2207.4 2669.25 2182.2C2655.45 2156.4 2636.25 2136.6 2611.65 2122.8C2587.05 2109 2559.75 2102.1 2529.75 2102.1C2499.15 2102.1 2471.55 2109 2446.95 2122.8C2422.95 2136.6 2403.75 2156.4 2389.35 2182.2C2375.55 2207.4 2368.65 2236.5 2368.65 2269.5C2368.65 2302.5 2375.55 2331.9 2389.35 2357.7C2403.75 2382.9 2422.95 2402.7 2446.95 2417.1C2471.55 2430.9 2499.15 2437.8 2529.75 2437.8ZM3433.92 2031V2508H3351.12V2432.4C3331.92 2458.8 3307.62 2478.9 3278.22 2492.7C3248.82 2506.5 3216.42 2513.4 3181.02 2513.4C3134.82 2513.4 3093.42 2503.2 3056.82 2482.8C3020.22 2462.4 2991.42 2433.9 2970.42 2397.3C2950.02 2360.1 2939.82 2317.5 2939.82 2269.5C2939.82 2221.5 2950.02 2179.2 2970.42 2142.6C2991.42 2106 3020.22 2077.5 3056.82 2057.1C3093.42 2036.7 3134.82 2026.5 3181.02 2026.5C3215.22 2026.5 3246.72 2033.1 3275.52 2046.3C3304.32 2058.9 3328.32 2077.8 3347.52 2103V2031H3433.92ZM3188.22 2437.8C3218.22 2437.8 3245.52 2430.9 3270.12 2417.1C3294.72 2402.7 3313.92 2382.9 3327.72 2357.7C3341.52 2331.9 3348.42 2302.5 3348.42 2269.5C3348.42 2236.5 3341.52 2207.4 3327.72 2182.2C3313.92 2156.4 3294.72 2136.6 3270.12 2122.8C3245.52 2109 3218.22 2102.1 3188.22 2102.1C3157.62 2102.1 3130.02 2109 3105.42 2122.8C3081.42 2136.6 3062.22 2156.4 3047.82 2182.2C3034.02 2207.4 3027.12 2236.5 3027.12 2269.5C3027.12 2302.5 3034.02 2331.9 3047.82 2357.7C3062.22 2382.9 3081.42 2402.7 3105.42 2417.1C3130.02 2430.9 3157.62 2437.8 3188.22 2437.8Z" fill="#1B2B3D"/>
<path d="M503.381 1543.17L571.315 1692.63C571.315 1692.63 617.937 1776.28 650.121 1828.5C718.703 1939.77 814.522 2055.4 841.697 2102.96C868.871 2150.51 894.672 2195.16 891.968 2259.21C889.22 2324.29 868.87 2359.75 826.75 2412.74C769.36 2484.94 669.142 2477.96 669.142 2477.96C669.142 2477.96 783.272 2410.02 758.816 2259.21C734.359 2108.39 542.783 1933.12 506.099 1818.99C489.315 1766.77 483.112 1735.25 483 1680.4C482.888 1625.04 503.381 1543.17 503.381 1543.17Z" fill="#F7475B"/>
<path d="M611.974 1266L702.209 1464.52C702.209 1464.52 764.134 1575.63 806.883 1644.99C897.978 1792.79 1025.25 1946.38 1061.35 2009.54C1097.44 2072.71 1131.71 2132.02 1128.12 2217.08C1124.47 2303.53 1097.44 2350.63 1041.49 2421.01C965.265 2516.92 832.149 2507.64 832.149 2507.64C832.149 2507.64 983.744 2417.4 951.259 2217.08C918.775 2016.76 664.311 1783.95 615.583 1632.36C593.29 1563 585.052 1521.13 584.903 1448.28C584.753 1374.73 611.974 1266 611.974 1266Z" fill="#334E7B"/>
<path d="M1178.65 2126.05C1108 1930.4 1014.25 1851.6 1014.25 1851.6C1014.25 1851.6 1074.03 1738.83 1223.49 1738.83C1372.95 1738.83 1483 1905.95 1483 1905.95C1483 1905.95 1368.87 1910.02 1290.07 1963.01C1211.26 2016 1178.65 2126.05 1178.65 2126.05Z" fill="#334E7B"/>
</svg>
