<svg width="4000" height="4000" viewBox="0 0 4000 4000" fill="none" xmlns="http://www.w3.org/2000/svg">
<path d="M561.144 968.522L764.947 1416.89C764.947 1416.89 904.81 1667.85 1001.36 1824.5C1207.11 2158.32 1494.57 2505.21 1576.09 2647.87C1657.61 2790.53 1735.02 2924.49 1726.9 3116.62C1718.66 3311.88 1657.61 3418.25 1531.25 3577.22C1359.08 3793.82 1058.43 3772.87 1058.43 3772.87C1058.43 3772.87 1400.82 3569.06 1327.45 3116.62C1254.08 2664.17 679.35 2138.36 569.296 1795.97C518.944 1639.32 500.337 1544.75 500.001 1380.21C499.663 1214.11 561.144 968.522 561.144 968.522Z" fill="#F7475B"/>
<path d="M886.924 137L1157.63 732.554C1157.63 732.554 1343.4 1065.89 1471.65 1273.97C1744.94 1717.37 2126.76 2178.13 2235.04 2367.62C2343.33 2557.12 2446.14 2735.05 2435.36 2990.25C2424.41 3249.6 2343.32 3390.89 2175.48 3602.04C1946.8 3889.75 1547.45 3861.92 1547.45 3861.92C1547.45 3861.92 2002.23 3591.21 1904.78 2990.25C1807.32 2389.28 1043.93 1690.85 897.751 1236.07C830.87 1028 806.155 902.383 805.709 683.827C805.259 463.204 886.924 137 886.924 137Z" fill="#334E7B"/>
<path d="M2586.96 2717.16C2375 2130.21 2093.75 1893.79 2093.75 1893.79C2093.75 1893.79 2273.1 1555.48 2721.47 1555.48C3169.84 1555.48 3500 2056.84 3500 2056.84C3500 2056.84 3157.61 2069.06 2921.2 2228.03C2684.78 2387 2586.96 2717.16 2586.96 2717.16Z" fill="#334E7B"/>
</svg>
